{
  "accessors": [
    {
      "bufferView": 2,
      "componentType": 5126,
      "count": 65532,
      "max": [
        11.213309288024902,
        7.1912841796875,
        9.809944152832031
      ],
      "min": [
        -5.710906982421875,
        -11.310175895690918,
        -0.09215400367975235
      ],
      "type": "VEC3"
    },
    {
      "bufferView": 2,
      "byteOffset": 786384,
      "componentType": 5126,
      "count": 65532,
      "max": [
        0.9999986886978149,
        0.9996331334114075,
        0.9999927282333374
      ],
      "min": [
        -0.9999955892562866,
        -0.9999994039535522,
        -1.0
      ],
      "type": "VEC3"
    },
    {
      "bufferView": 1,
      "componentType": 5126,
      "count": 65532,
      "max": [
        0.9987760186195374,
        0.9838899970054626
      ],
      "min": [
        0.00024399999529123306,
        0.0007880000048317015
      ],
      "type": "VEC2"
    },
    {
      "bufferView": 0,
      "componentType": 5125,
      "count": 320859,
      "type": "SCALAR"
    },
    {
      "bufferView": 2,
      "byteOffset": 1572768,
      "componentType": 5126,
      "count": 65532,
      "max": [
        11.220422744750977,
        8.234258651733398,
        10.884623527526855
      ],
      "min": [
        -5.164475917816162,
        -11.238507270812988,
        0.19678400456905365
      ],
      "type": "VEC3"
    },
    {
      "bufferView": 2,
      "byteOffset": 2359152,
      "componentType": 5126,
      "count": 65532,
      "max": [
        1.0,
        0.9999986886978149,
        0.9999995231628418
      ],
      "min": [
        -0.9999659061431885,
        -0.9999996423721313,
        -0.9999984502792358
      ],
      "type": "VEC3"
    },
    {
      "bufferView": 1,
      "byteOffset": 524256,
      "componentType": 5126,
      "count": 65532,
      "max": [
        0.9992719888687134,
        0.944661021232605
      ],
      "min": [
        0.00024399999529123306,
        0.0007650000043213367
      ],
      "type": "VEC2"
    },
    {
      "bufferView": 0,
      "byteOffset": 1283436,
      "componentType": 5125,
      "count": 294333,
      "type": "SCALAR"
    },
    {
      "bufferView": 2,
      "byteOffset": 3145536,
      "componentType": 5126,
      "count": 65532,
      "max": [
        11.163816452026367,
        8.10252857208252,
        10.893162727355957
      ],
      "min": [
        -5.024263858795166,
        -9.084092140197754,
        -0.10658399760723114
      ],
      "type": "VEC3"
    },
    {
      "bufferView": 2,
      "byteOffset": 3931920,
      "componentType": 5126,
      "count": 65532,
      "max": [
        0.9999837875366211,
        1.0,
        0.999997615814209
      ],
      "min": [
        -1.0,
        -0.9996433854103088,
        -0.9999998807907104
      ],
      "type": "VEC3"
    },
    {
      "bufferView": 1,
      "byteOffset": 1048512,
      "componentType": 5126,
      "count": 65532,
      "max": [
        0.9995189905166626,
        0.8879389762878418
      ],
      "min": [
        0.00024399999529123306,
        0.0007399999885819852
      ],
      "type": "VEC2"
    },
    {
      "bufferView": 0,
      "byteOffset": 2460768,
      "componentType": 5125,
      "count": 300156,
      "type": "SCALAR"
    },
    {
      "bufferView": 2,
      "byteOffset": 4718304,
      "componentType": 5126,
      "count": 65532,
      "max": [
        9.199692726135254,
        7.457880020141602,
        5.828199863433838
      ],
      "min": [
        -7.453277111053467,
        -8.639519691467285,
        -0.09010600298643112
      ],
      "type": "VEC3"
    },
    {
      "bufferView": 2,
      "byteOffset": 5504688,
      "componentType": 5126,
      "count": 65532,
      "max": [
        0.9999935626983643,
        0.9999856948852539,
        0.999998927116394
      ],
      "min": [
        -1.0,
        -0.9999978542327881,
        -1.0
      ],
      "type": "VEC3"
    },
    {
      "bufferView": 1,
      "byteOffset": 1572768,
      "componentType": 5126,
      "count": 65532,
      "max": [
        0.9990990161895752,
        0.9421070218086243
      ],
      "min": [
        0.00024399999529123306,
        0.0008219999726861715
      ],
      "type": "VEC2"
    },
    {
      "bufferView": 0,
      "byteOffset": 3661392,
      "componentType": 5125,
      "count": 305205,
      "type": "SCALAR"
    },
    {
      "bufferView": 2,
      "byteOffset": 6291072,
      "componentType": 5126,
      "count": 65532,
      "max": [
        11.180603981018066,
        8.339722633361816,
        10.840989112854004
      ],
      "min": [
        -7.453924179077148,
        -8.65585994720459,
        -0.09075099974870682
      ],
      "type": "VEC3"
    },
    {
      "bufferView": 2,
      "byteOffset": 7077456,
      "componentType": 5126,
      "count": 65532,
      "max": [
        0.9999997615814209,
        0.9999988079071045,
        0.9999994039535522
      ],
      "min": [
        -0.9999982118606567,
        -0.9999827146530151,
        -0.9999998807907104
      ],
      "type": "VEC3"
    },
    {
      "bufferView": 1,
      "byteOffset": 2097024,
      "componentType": 5126,
      "count": 65532,
      "max": [
        0.9995620250701904,
        0.9370790123939514
      ],
      "min": [
        0.00024399999529123306,
        0.000737000023946166
      ],
      "type": "VEC2"
    },
    {
      "bufferView": 0,
      "byteOffset": 4882212,
      "componentType": 5125,
      "count": 258585,
      "type": "SCALAR"
    },
    {
      "bufferView": 2,
      "byteOffset": 7863840,
      "componentType": 5126,
      "count": 65532,
      "max": [
        11.215826034545898,
        8.409361839294434,
        6.3314409255981445
      ],
      "min": [
        -4.991551876068115,
        -8.605416297912598,
        -0.10746099799871445
      ],
      "type": "VEC3"
    },
    {
      "bufferView": 2,
      "byteOffset": 8650224,
      "componentType": 5126,
      "count": 65532,
      "max": [
        0.9999958276748657,
        0.9999992847442627,
        0.9999958276748657
      ],
      "min": [
        -0.9999877214431763,
        -0.992538571357727,
        -1.0
      ],
      "type": "VEC3"
    },
    {
      "bufferView": 1,
      "byteOffset": 2621280,
      "componentType": 5126,
      "count": 65532,
      "max": [
        0.9994840025901794,
        0.9021000266075134
      ],
      "min": [
        0.00024399999529123306,
        0.0008089999901130795
      ],
      "type": "VEC2"
    },
    {
      "bufferView": 0,
      "byteOffset": 5916552,
      "componentType": 5125,
      "count": 290256,
      "type": "SCALAR"
    },
    {
      "bufferView": 2,
      "byteOffset": 9436608,
      "componentType": 5126,
      "count": 19572,
      "max": [
        10.958723068237305,
        8.29709529876709,
        6.559089183807373
      ],
      "min": [
        -4.969954013824463,
        -11.197543144226074,
        0.06114500015974045
      ],
      "type": "VEC3"
    },
    {
      "bufferView": 2,
      "byteOffset": 9671472,
      "componentType": 5126,
      "count": 19572,
      "max": [
        0.9999363422393799,
        0.9999980926513672,
        1.0
      ],
      "min": [
        -0.9997259974479675,
        -0.9999392032623291,
        -0.9999719858169556
      ],
      "type": "VEC3"
    },
    {
      "bufferView": 1,
      "byteOffset": 3145536,
      "componentType": 5126,
      "count": 19572,
      "max": [
        0.9994919896125793,
        0.8879389762878418
      ],
      "min": [
        0.00024399999529123306,
        0.004749000072479248
      ],
      "type": "VEC2"
    },
    {
      "bufferView": 0,
      "byteOffset": 7077576,
      "componentType": 5125,
      "count": 71784,
      "type": "SCALAR"
    },
    {
      "bufferView": 2,
      "byteOffset": 9906336,
      "componentType": 5126,
      "count": 634,
      "max": [
        5.439138889312744,
        4.996098041534424,
        9.872654914855957
      ],
      "min": [
        -3.2056729793548584,
        -9.921835899353027,
        3.921260118484497
      ],
      "type": "VEC3"
    },
    {
      "bufferView": 2,
      "byteOffset": 9913944,
      "componentType": 5126,
      "count": 634,
      "max": [
        0.6608870625495911,
        1.0,
        0.6698970198631287
      ],
      "min": [
        -0.6608870625495911,
        -1.0,
        -0.6698418855667114
      ],
      "type": "VEC3"
    },
    {
      "bufferView": 1,
      "byteOffset": 3302112,
      "componentType": 5126,
      "count": 634,
      "max": [
        1.0,
        1.0
      ],
      "min": [
        0.0,
        0.0
      ],
      "type": "VEC2"
    },
    {
      "bufferView": 0,
      "byteOffset": 7364712,
      "componentType": 5125,
      "count": 3228,
      "type": "SCALAR"
    }
  ],
  "asset": {
    "extras": {
      "author": "noe-3d.at (https://sketchfab.com/www.noe-3d.at)",
      "license": "CC-BY-4.0 (http://creativecommons.org/licenses/by/4.0/)",
      "source": "https://sketchfab.com/3d-models/polaroid-image-systemspectra-fbd96b0b19ee48bcb8138c0818eb09d9",
      "title": "Polaroid Image System/Spectra"
    },
    "generator": "Sketchfab-14.87.0",
    "version": "2.0"
  },
  "bufferViews": [
    {
      "buffer": 0,
      "byteLength": 7377624,
      "name": "floatBufferViews",
      "target": 34963
    },
    {
      "buffer": 0,
      "byteLength": 3307184,
      "byteOffset": 7377624,
      "byteStride": 8,
      "name": "floatBufferViews",
      "target": 34962
    },
    {
      "buffer": 0,
      "byteLength": 9921552,
      "byteOffset": 10684808,
      "byteStride": 12,
      "name": "floatBufferViews",
      "target": 34962
    }
  ],
  "buffers": [
    {
      "byteLength": 20606360,
      "uri": "scene.bin"
    }
  ],
  "extensionsUsed": [
    "KHR_materials_specular",
    "KHR_materials_clearcoat",
    "KHR_materials_transmission"
  ],
  "images": [
    {
      "uri": "textures/Polaroid_O_Material_u1_v1_baseColor.png"
    }
  ],
  "materials": [
    {
      "doubleSided": true,
      "extensions": {
        "KHR_materials_specular": {
          "specularColorFactor": [
            1.0,
            1.0,
            1.0
          ],
          "specularFactor": 0.0
        }
      },
      "name": "Polaroid_O_Material_u1_v1",
      "pbrMetallicRoughness": {
        "baseColorTexture": {
          "index": 0
        },
        "metallicFactor": 0.0
      }
    },
    {
      "alphaMode": "BLEND",
      "doubleSided": true,
      "extensions": {
        "KHR_materials_clearcoat": {
          "clearcoatFactor": 1.0,
          "clearcoatRoughnessFactor": 0.24228645268252244
        },
        "KHR_materials_specular": {
          "specularColorFactor": [
            1.0,
            1.0,
            1.0
          ],
          "specularFactor": 0.0
        },
        "KHR_materials_transmission": {
          "transmissionFactor": 0.8674281674001292
        }
      },
      "name": "glasses",
      "pbrMetallicRoughness": {
        "baseColorFactor": [
          0.3840011702892809,
          0.3840011702892809,
          0.3840011702892809,
          0.25
        ],
        "metallicFactor": 0.0
      }
    }
  ],
  "meshes": [
    {
      "name": "Object_0",
      "primitives": [
        {
          "attributes": {
            "NORMAL": 1,
            "POSITION": 0,
            "TEXCOORD_0": 2
          },
          "indices": 3,
          "material": 0,
          "mode": 4
        }
      ]
    },
    {
      "name": "Object_1",
      "primitives": [
        {
          "attributes": {
            "NORMAL": 5,
            "POSITION": 4,
            "TEXCOORD_0": 6
          },
          "indices": 7,
          "material": 0,
          "mode": 4
        }
      ]
    },
    {
      "name": "Object_2",
      "primitives": [
        {
          "attributes": {
            "NORMAL": 9,
            "POSITION": 8,
            "TEXCOORD_0": 10
          },
          "indices": 11,
          "material": 0,
          "mode": 4
        }
      ]
    },
    {
      "name": "Object_3",
      "primitives": [
        {
          "attributes": {
            "NORMAL": 13,
            "POSITION": 12,
            "TEXCOORD_0": 14
          },
          "indices": 15,
          "material": 0,
          "mode": 4
        }
      ]
    },
    {
      "name": "Object_4",
      "primitives": [
        {
          "attributes": {
            "NORMAL": 17,
            "POSITION": 16,
            "TEXCOORD_0": 18
          },
          "indices": 19,
          "material": 0,
          "mode": 4
        }
      ]
    },
    {
      "name": "Object_5",
      "primitives": [
        {
          "attributes": {
            "NORMAL": 21,
            "POSITION": 20,
            "TEXCOORD_0": 22
          },
          "indices": 23,
          "material": 0,
          "mode": 4
        }
      ]
    },
    {
      "name": "Object_6",
      "primitives": [
        {
          "attributes": {
            "NORMAL": 25,
            "POSITION": 24,
            "TEXCOORD_0": 26
          },
          "indices": 27,
          "material": 0,
          "mode": 4
        }
      ]
    },
    {
      "name": "Object_7",
      "primitives": [
        {
          "attributes": {
            "NORMAL": 29,
            "POSITION": 28,
            "TEXCOORD_0": 30
          },
          "indices": 31,
          "material": 1,
          "mode": 4
        }
      ]
    }
  ],
  "nodes": [
    {
      "children": [
        1
      ],
      "matrix": [
        -0.9994538426399231,
        0.006694028154015548,
        -0.03236079961061478,
        0.0,
        -0.032360076904296875,
        0.0002167376369468511,
        0.9994762539863586,
        0.0,
        0.00669753598049283,
        0.9999775886535645,
        2.2205318113362226e-16,
        0.0,
        0.0,
        0.0,
        0.0,
        1.0
      ],
      "name": "Sketchfab_model"
    },
    {
      "children": [
        2,
        3,
        4,
        5,
        6,
        7,
        8,
        9
      ],
      "name": "Polaroid_CN.obj.cleaner.materialmerger.gles"
    },
    {
      "mesh": 0,
      "name": "Object_2"
    },
    {
      "mesh": 1,
      "name": "Object_3"
    },
    {
      "mesh": 2,
      "name": "Object_4"
    },
    {
      "mesh": 3,
      "name": "Object_5"
    },
    {
      "mesh": 4,
      "name": "Object_6"
    },
    {
      "mesh": 5,
      "name": "Object_7"
    },
    {
      "mesh": 6,
      "name": "Object_8"
    },
    {
      "mesh": 7,
      "name": "Object_9"
    }
  ],
  "samplers": [
    {
      "magFilter": 9729,
      "minFilter": 9987,
      "wrapS": 10497,
      "wrapT": 10497
    }
  ],
  "scene": 0,
  "scenes": [
    {
      "name": "Sketchfab_Scene",
      "nodes": [
        0
      ]
    }
  ],
  "textures": [
    {
      "sampler": 0,
      "source": 0
    }
  ]
}
